<svg width="959" height="974" viewBox="0 0 959 974" fill="none" xmlns="http://www.w3.org/2000/svg">
<ellipse cx="479.5" cy="487" rx="479.5" ry="487" fill="#D9D9D9"/>
<path d="M776.171 253.701C767.11 225.241 748.595 200.53 740.471 191.732C691.494 149.042 643.549 163.903 607.276 191.732L162.098 637.137C294.576 644.262 582.902 643.105 676.382 581.479C765.529 522.711 783.326 383.54 781.725 305.056M776.171 253.701L823.198 305.056H781.725M776.171 253.701C778.856 262.136 781.227 280.665 781.725 305.056" stroke="#517251" stroke-width="27.1366" stroke-linejoin="round"/>
<path d="M253.284 641.44L135 756.916C153.543 772.121 198.027 797.971 227.62 779.724C257.212 761.477 341.555 679.932 380.027 641.44" stroke="#517251" stroke-width="17" stroke-linejoin="round"/>
<path d="M209.412 586.644C255.483 587.552 369.475 578.295 424.187 514.489C478.899 450.684 480.247 366.26 474.081 332.024" stroke="#517251" stroke-width="16.9604" stroke-linejoin="round"/>
<path d="M209.412 640.367C265.187 641.467 466.916 624.464 533.152 547.196C599.388 469.927 512.649 346.943 486.698 316.388" stroke="#517251" stroke-width="16.9604" stroke-linejoin="round"/>
<path d="M483.543 631.686L451.141 690.5" stroke="#517251" stroke-width="16.9604" stroke-linecap="round" stroke-linejoin="round"/>
<path d="M511.357 628.674L533.007 665.683" stroke="#517251" stroke-width="16.9604" stroke-linecap="round" stroke-linejoin="round"/>
<ellipse cx="690.003" cy="280.67" rx="19.2122" ry="19.222" fill="#517251"/>
<path d="M304.469 647.322L172.564 776.138" stroke="#517251" stroke-width="10" stroke-linecap="round" stroke-linejoin="round"/>
</svg>
